<?xml version="1.0" encoding="UTF-8"?>
<svg width="120px" height="120px" viewBox="0 0 120 120" version="1.1" xmlns="http://www.w3.org/2000/svg" xmlns:xlink="http://www.w3.org/1999/xlink">
    <title>餐厅资料 icon@2x</title>
    <g id="页面-1" stroke="none" stroke-width="1" fill="none" fill-rule="evenodd">
        <g id="20210421设计稿" transform="translate(-165.000000, -591.000000)">
            <g id="餐厅资料-icon" transform="translate(165.000000, 591.000000)">
                <circle id="椭圆形备份-15" fill="#1ECEE4" cx="60" cy="60" r="60"></circle>
                <g transform="translate(32.000000, 32.000000)" fill="#FFFFFF">
                    <rect id="矩形" opacity="0" x="0" y="0" width="56" height="56"></rect>
                    <path d="M13,-1.98951966e-13 C20.1797017,-1.98951966e-13 26,7.163444 26,16 C26,22.0113345 23.3064753,27.2483842 19.3238089,29.9826777 L20.9505012,47.4337317 C21.4722019,51.9864453 17.7659532,55.9694163 13,55.9694163 C8.23404677,55.9694163 4.52779807,51.9864453 5.04841189,47.4337317 L6.67519069,29.9819908 C2.69307364,27.2475072 0,22.0108312 0,16 C0,7.163444 5.82029825,-1.98951966e-13 13,-1.98951966e-13 Z M54,-1.98951966e-13 C55.0543618,-1.98951966e-13 55.9181651,0.815877791 55.9945143,1.85073766 L56,2 L56,19 C56,23.8702994 53.3217954,28.1150706 49.3578046,30.3418952 L50.9505012,47.4337317 C51.4722019,51.9864453 47.7659532,55.9694163 43,55.9694163 C38.2340468,55.9694163 34.5277981,51.9864453 35.0484119,47.4337317 L36.6421954,30.3418952 C32.6782046,28.1150706 30,23.8702994 30,19 L30,2 L30.0054857,1.85073766 C30.0818349,0.815877791 30.9456382,-1.98951966e-13 32,-1.98951966e-13 C33.0543618,-1.98951966e-13 33.9181651,0.815877791 33.9945143,1.85073766 L34,2 L34,19 C34,23.8818027 37.8868137,27.8557914 42.7346377,27.9961629 L43,28 C47.8818027,28 51.8557914,24.1131863 51.9961629,19.2653623 L52,19 L52,2 L52.0054857,1.85073766 C52.0818349,0.815877791 52.9456382,-1.98951966e-13 54,-1.98951966e-13 Z M15.1267903,31.7869327 C14.4347478,31.9270987 13.7242911,32 13,32 C12.2753596,32 11.5645671,31.9270284 10.8722087,31.7867299 L9.37635392,47.8309834 C9.19903371,49.180913 9.84823257,50.5079114 11.0426549,51.2369949 C12.2370772,51.9660785 13.7618359,51.9660785 14.9562582,51.2369949 C16.1506806,50.5079114 16.7998794,49.180913 16.6225592,47.8309834 L15.1267903,31.7869327 Z M45.1307467,31.8262311 C44.4374557,31.9405417 43.7256715,32 43,32 C42.2739785,32 41.5618576,31.9404843 40.86825,31.8260656 L39.3763539,47.8309834 C39.1990337,49.180913 39.8482326,50.5079114 41.0426549,51.2369949 C42.2370772,51.9660785 43.7618359,51.9660785 44.9562582,51.2369949 C46.1506806,50.5079114 46.7998794,49.180913 46.6225592,47.8309834 L45.1307467,31.8262311 Z M13,4 C8.02943725,4 4,9.372583 4,16 C4,22.627417 8.02943725,28 13,28 C17.9705627,28 22,22.627417 22,16 C22,9.372583 17.9705627,4 13,4 Z M40,-2.77111667e-13 C41.1045695,-2.77314573e-13 42,0.8954305 42,2 L42,22 C42,23.1045695 41.1045695,24 40,24 C38.8954305,24 38,23.1045695 38,22 L38,2 C38,0.8954305 38.8954305,-2.76908761e-13 40,-2.77111667e-13 Z M46,-2.77111667e-13 C47.1045695,-2.77314573e-13 48,0.8954305 48,2 L48,22 C48,23.1045695 47.1045695,24 46,24 C44.8954305,24 44,23.1045695 44,22 L44,2 C44,0.8954305 44.8954305,-2.76908761e-13 46,-2.77111667e-13 Z" id="形状结合"></path>
                    <ellipse id="椭圆形" fill-opacity="0.24" cx="13" cy="24" rx="9" ry="6"></ellipse>
                    <ellipse id="椭圆形备份-24" fill-opacity="0.24" cx="43" cy="24" rx="9" ry="6"></ellipse>
                </g>
            </g>
        </g>
    </g>
</svg>