<?xml version="1.0" encoding="UTF-8"?>
<svg width="120px" height="120px" viewBox="0 0 120 120" version="1.1" xmlns="http://www.w3.org/2000/svg" xmlns:xlink="http://www.w3.org/1999/xlink">
    <title>厨师信息 icon@2x</title>
    <g id="页面-1" stroke="none" stroke-width="1" fill="none" fill-rule="evenodd">
        <g id="20210421设计稿" transform="translate(-415.000000, -591.000000)">
            <g id="厨师信息-icon" transform="translate(415.000000, 591.000000)">
                <circle id="椭圆形备份-16" fill="#AF79FF" cx="60" cy="60" r="60"></circle>
                <g transform="translate(32.000000, 32.000000)" fill="#FFFFFF">
                    <path d="M12.8372571,35.3254971 C19.0228463,35.3254971 22.5682871,31.9388767 25.1086813,28.6251943 C25.1086813,23.9860024 20.0942705,20.2251943 13.9086813,20.2251943 C7.72309207,20.2251943 2.70868127,23.9860024 2.70868127,28.6251943 C2.95861105,29.0952438 4.03504519,33.2796879 12.8372571,35.3254971 Z" id="椭圆形" fill-opacity="0.24" transform="translate(13.908681, 27.775346) rotate(28.000000) translate(-13.908681, -27.775346) "></path>
                    <path d="M42.3007775,34.8332922 C48.4863667,34.8332922 50.1835835,32.4293899 53.5897934,28.6553451 C53.5897934,24.0161532 48.5753826,20.2553451 42.3897934,20.2553451 C36.2042042,20.2553451 31.1897934,24.0161532 31.1897934,28.6553451 C31.4397232,29.1253947 37.1155512,35.0753711 42.3007775,34.8332922 Z" id="椭圆形备份-9" fill-opacity="0.24" transform="translate(42.389793, 27.547913) scale(-1, 1) rotate(28.000000) translate(-42.389793, -27.547913) "></path>
                    <path d="M28,0 C34.0014398,0 39.2010739,3.43293808 41.7423193,8.44223116 C49.7137005,9.02585151 56,15.6788038 56,23.8 C56,29.784728 52.5861542,34.9721096 47.5995792,37.5210282 L47.6,52 C47.6,54.209139 45.809139,56 43.6,56 L12.4,56 C10.190861,56 8.4,54.209139 8.4,52 L8.39941515,37.5205141 C3.4133868,34.9714121 7.27595761e-12,29.7843257 7.27595761e-12,23.8 C7.27595761e-12,15.6788038 6.28629953,9.02585151 14.2583668,8.44167498 C16.7992954,3.43269425 21.9987734,0 28,0 Z M28,4.2 C23.2912813,4.2 19.2612448,7.10578346 17.6052492,11.2219915 L17.5531035,11.3500427 C17.2267767,12.0863547 16.4895031,12.6 15.6322611,12.6 C15.5986438,12.6 15.5652109,12.5992101 15.5319801,12.5976478 L15.5308008,12.6007481 C15.4872598,12.6002498 15.4436591,12.6 15.4,12.6 C9.2144108,12.6 4.2,17.6144108 4.2,23.8 C4.2,29.9855892 9.2144108,35 15.4,35 C17.3456922,35 19.1755041,34.503858 20.7698236,33.6311862 C21.0503567,33.4949022 21.3660767,33.4169641 21.7,33.4169641 C22.859798,33.4169641 23.8,34.3571661 23.8,35.5169641 C23.8,36.3456181 23.3200423,37.062172 22.6229543,37.4037983 L22.6237639,37.4040964 C20.4694325,38.5504283 18.0105741,39.2 15.4,39.2 C14.4433517,39.2 13.5070767,39.1127712 12.5986949,38.9458335 L12.6,49.8 C12.6,50.8543618 13.4158778,51.7181651 14.4507377,51.7945143 L14.6,51.8 L41.4,51.8 C42.4543618,51.8 43.3181651,50.9841222 43.3945143,49.9492623 L43.4,49.8 L43.3982938,38.9463866 C42.4908542,39.1129639 41.5555913,39.2 40.6,39.2 C37.9892005,39.2 35.5301428,38.5503161 33.3756781,37.4037994 C33.3321544,37.3817688 33.2891267,37.3587439 33.2470265,37.3342981 C33.2227692,37.3213423 33.1988797,37.308253 33.1750288,37.2951023 C32.5899338,36.9197065 32.2,36.2638722 32.2,35.5169641 C32.2,34.3571661 33.140202,33.4169641 34.3,33.4169641 C34.6620013,33.4169641 35.0026092,33.5085601 35.2999117,33.6698402 L35.3003053,33.6692474 C36.8780635,34.5182696 38.6827747,35 40.6,35 C46.7855892,35 51.8,29.9855892 51.8,23.8 C51.8,17.6144108 46.7855892,12.6 40.6,12.6 L40.5069001,12.6010032 L40.503,12.595 L40.3766225,12.599286 C39.4428213,12.599286 38.6513737,11.9897978 38.3783891,11.1469307 L38.3667175,11.1529789 C36.6936143,7.07334181 32.6823596,4.2 28,4.2 Z M28,40.6 C28.7731986,40.6 29.4,41.2268014 29.4,42 L29.4,47.6 C29.4,48.3731986 28.7731986,49 28,49 C27.2268014,49 26.6,48.3731986 26.6,47.6 L26.6,42 C26.6,41.2268014 27.2268014,40.6 28,40.6 Z M36.4,40.6 C37.1731986,40.6 37.8,41.2268014 37.8,42 L37.8,47.6 C37.8,48.3731986 37.1731986,49 36.4,49 C35.6268014,49 35,48.3731986 35,47.6 L35,42 C35,41.2268014 35.6268014,40.6 36.4,40.6 Z M19.6,40.6 C20.3731986,40.6 21,41.2268014 21,42 L21,47.6 C21,48.3731986 20.3731986,49 19.6,49 C18.8268014,49 18.2,48.3731986 18.2,47.6 L18.2,42 C18.2,41.2268014 18.8268014,40.6 19.6,40.6 Z" id="形状结合"></path>
                </g>
            </g>
        </g>
    </g>
</svg>