<?xml version="1.0" encoding="UTF-8"?>
<svg width="120px" height="120px" viewBox="0 0 120 120" version="1.1" xmlns="http://www.w3.org/2000/svg" xmlns:xlink="http://www.w3.org/1999/xlink">
    <title>分类管理 icon@2x</title>
    <g id="页面-1" stroke="none" stroke-width="1" fill="none" fill-rule="evenodd">
        <g id="20210421设计稿" transform="translate(-665.000000, -341.000000)">
            <g id="分类管理-icon" transform="translate(665.000000, 341.000000)">
                <circle id="椭圆形备份-14" fill="#A3CA0F" cx="60" cy="60" r="60"></circle>
                <g transform="translate(32.000000, 32.000000)" fill="#FFFFFF">
                    <rect id="矩形" fill-opacity="0" x="0" y="0" width="56" height="56"></rect>
                    <path d="M18.5,42 C22.0898509,42 25,44.9101491 25,48.5 C25,52.0898509 22.0898509,55 18.5,55 C14.9101491,55 12,52.0898509 12,48.5 C12,44.9101491 14.9101491,42 18.5,42 Z M48.5,42 C52.0898509,42 55,44.9101491 55,48.5 C55,52.0898509 52.0898509,55 48.5,55 C44.9101491,55 42,52.0898509 42,48.5 C42,44.9101491 44.9101491,42 48.5,42 Z M18.5,12 C22.0898509,12 25,14.9101491 25,18.5 C25,22.0898509 22.0898509,25 18.5,25 C14.9101491,25 12,22.0898509 12,18.5 C12,14.9101491 14.9101491,12 18.5,12 Z M46.5,11 C50.0898509,11 53,13.9101491 53,17.5 C53,21.0898509 50.0898509,24 46.5,24 C42.9101491,24 40,21.0898509 40,17.5 C40,13.9101491 42.9101491,11 46.5,11 Z" id="形状结合" fill-opacity="0.24"></path>
                    <path d="M20,30 C23.3137085,30 26,32.6862915 26,36 L26,50 C26,53.3137085 23.3137085,56 20,56 L6,56 C2.6862915,56 4.05812251e-16,53.3137085 0,50 L0,36 C-4.05812251e-16,32.6862915 2.6862915,30 6,30 L20,30 Z M50,30 C53.3137085,30 56,32.6862915 56,36 L56,50 C56,53.3137085 53.3137085,56 50,56 L36,56 C32.6862915,56 30,53.3137085 30,50 L30,36 C30,32.6862915 32.6862915,30 36,30 L50,30 Z M19,34 L7,34 C5.40231912,34 4.09633912,35.24892 4.00509269,36.8237272 L4,37 L4,49 C4,50.5976809 5.24891996,51.9036609 6.82372721,51.9949073 L7,52 L19,52 C20.5976809,52 21.9036609,50.75108 21.9949073,49.1762728 L22,49 L22,37 C22,35.3431458 20.6568542,34 19,34 Z M49,34 L37,34 C35.4023191,34 34.0963391,35.24892 34.0050927,36.8237272 L34,37 L34,49 C34,50.5976809 35.24892,51.9036609 36.8237272,51.9949073 L37,52 L49,52 C50.5976809,52 51.9036609,50.75108 51.9949073,49.1762728 L52,49 L52,37 C52,35.3431458 50.6568542,34 49,34 Z M20,0 C23.3137085,-6.08718376e-16 26,2.6862915 26,6 L26,20 C26,23.3137085 23.3137085,26 20,26 L6,26 C2.6862915,26 4.05812251e-16,23.3137085 0,20 L0,6 C-4.05812251e-16,2.6862915 2.6862915,6.08718376e-16 6,0 L20,0 Z M43,0 C50.1797017,0 56,5.82029825 56,13 C56,20.1797017 50.1797017,26 43,26 C35.8202983,26 30,20.1797017 30,13 C30,5.82029825 35.8202983,0 43,0 Z M19,4 L7,4 C5.40231912,4 4.09633912,5.24891996 4.00509269,6.82372721 L4,7 L4,19 C4,20.5976809 5.24891996,21.9036609 6.82372721,21.9949073 L7,22 L19,22 C20.5976809,22 21.9036609,20.75108 21.9949073,19.1762728 L22,19 L22,7 C22,5.34314575 20.6568542,4 19,4 Z M43,4 C38.0294373,4 34,8.02943725 34,13 C34,17.9705627 38.0294373,22 43,22 C47.9705627,22 52,17.9705627 52,13 C52,8.02943725 47.9705627,4 43,4 Z" id="形状结合"></path>
                </g>
            </g>
        </g>
    </g>
</svg>