<?xml version="1.0" encoding="UTF-8"?>
<svg width="120px" height="120px" viewBox="0 0 120 120" version="1.1" xmlns="http://www.w3.org/2000/svg" xmlns:xlink="http://www.w3.org/1999/xlink">
    <title>菜品管理icon@2x</title>
    <g id="页面-1" stroke="none" stroke-width="1" fill="none" fill-rule="evenodd">
        <g id="20210421设计稿" transform="translate(-165.000000, -341.000000)">
            <g id="菜品管理icon" transform="translate(165.000000, 341.000000)">
                <circle id="椭圆形备份-12" fill="#38A0FF" cx="60" cy="60" r="60"></circle>
                <g transform="translate(32.000000, 32.000000)" fill="#FFFFFF">
                    <rect id="矩形备份-8" opacity="0" x="0" y="0" width="56" height="56"></rect>
                    <path d="M11.5,34 C13.2326752,34 12.9165351,31.4074944 14.315123,30.5971822 C17.151592,28.9537921 21,28.0140299 21,24.5 C21,19.2532949 16.7467051,15 11.5,15 C6.25329488,15 2,19.2532949 2,24.5 C2,27.439447 4.91364852,27.980887 7.01041842,29.7234755 C8.65623457,31.0912842 9.19274189,34 11.5,34 Z" id="椭圆形" fill-opacity="0.24"></path>
                    <path d="M44.5,34 C47.2246224,34 47.4733881,30.7221013 49.2056948,28.8846154 C50.8092275,27.1837222 54,27.0220827 54,24.5 C54,19.2532949 49.7467051,15 44.5,15 C39.2532949,15 35,19.2532949 35,24.5 C35,28.1519385 39.2857321,29.0071043 42.3076923,30.5971822 C43.6273535,31.291554 42.9052333,34 44.5,34 Z" id="椭圆形备份-4" fill-opacity="0.24"></path>
                    <path d="M26.7391687,31.7961205 C31.9858738,31.7961205 36,33.2245663 36,28.5194203 C36,23.8142744 31.7467051,20 26.5,20 C21.2532949,20 17,23.8142744 17,28.5194203 C17,33.2245663 21.4924636,31.7961205 26.7391687,31.7961205 Z" id="椭圆形备份-3" fill-opacity="0.24"></path>
                    <path d="M35,0 C38.9294607,0 42.318766,2.31267342 43.8810414,5.65114969 C50.6734515,6.24962912 56,11.952747 56,18.8999433 C56,22.6422596 54.4543622,26.0235739 51.9666342,28.4403404 C49.1924072,31.218713 36.3331148,40.9212099 37.8244647,53.7921464 C37.9540193,54.325556 37.828587,54.8881187 37.4841026,55.3186671 C37.1740666,55.7061607 36.7173872,55.9480455 36.2238201,55.9925475 L36.0580821,56 L19.8260539,56 C19.2994243,55.9993082 18.7989077,55.7735028 18.4540529,55.3808611 C18.1091981,54.9882193 17.9539029,54.4673363 18.0283624,53.9530322 C19.8400711,41.4401798 8.51356598,32.3663424 4.68397405,29.0308577 C4.56293064,28.9290711 4.44345543,28.8236406 4.32591756,28.7161271 C3.9902506,28.4162424 3.73928077,28.1769631 3.59408595,27.999916 C1.36628177,25.6178192 0,22.4184368 0,18.8999433 C0,11.9524067 5.32707035,6.24907037 12.1194747,5.65165902 C13.6814296,2.31253999 17.0706526,0 21,0 C23.7428461,0 26.2225105,1.12681157 28.0013284,2.94277119 C29.7786962,1.12626326 32.2578213,0 35,0 Z M18.3971418,31.1874566 L18.2243307,31.2585152 C16.9866596,31.7521025 15.6574309,32.0651533 14.2691823,32.16513 C17.8516558,36.4209789 22.175989,42.9190227 22.4302816,49.7530448 C22.4494481,50.2681385 22.4800272,50.7882319 22.6922481,51.1808737 C22.904469,51.5735154 23.2124829,51.7993208 23.5365666,51.8000126 L32.5004256,51.8000126 C32.84259,51.8000126 33.1659944,51.5492281 33.3779873,51.1186797 C33.5899803,50.6881313 33.6671704,50.1255686 33.5874435,49.592159 C33.902662,43.3320848 38.3521936,36.5372892 41.7413158,32.1638573 C40.2838423,32.0614242 38.8916965,31.7233051 37.6021437,31.1878349 C35.0959931,33.5512143 31.7171758,34.999895 28,34.999895 C24.2827258,34.999895 20.903828,33.5511377 18.3971418,31.1874566 Z M35,4.1999874 C32.7333683,4.1999874 30.7812598,5.54661771 29.900083,7.48347227 L29.8861355,7.47610435 C29.5442315,8.17241959 28.8280895,8.65172208 28,8.65172208 C27.1616678,8.65172208 26.4380695,8.16048911 26.1013495,7.45016672 L26.0879106,7.457262 C25.2010983,5.53447966 23.2563933,4.1999874 21,4.1999874 C19.3387063,4.1999874 17.8463726,4.92338868 16.820818,6.07237297 C17.9584392,6.38250537 19.0350646,6.84121013 20.0290753,7.42538772 C20.612313,7.80074049 21,8.45494258 21,9.19969356 C21,10.3594881 20.059798,11.2996873 18.9,11.2996873 C18.547018,11.2996873 18.2143767,11.2125989 17.9223906,11.0587366 L17.8570831,11.0214865 C16.5169948,10.2446785 14.9604311,9.79997059 13.3,9.79997059 C8.27420878,9.79997059 4.2,13.8741671 4.2,18.8999433 C4.2,23.9257194 8.27420878,27.999916 13.3,27.999916 C14.9114304,27.999916 16.4250334,27.5810682 17.7378792,26.8463022 C18.0699446,26.6224425 18.4698705,26.4931261 18.9,26.4931261 C19.5450722,26.4931261 20.1222121,26.783978 20.5074328,27.2416951 L20.5171675,27.2355645 C22.355314,29.4124674 25.0916884,30.7999076 28,30.7999076 C30.8809897,30.7999076 33.5932574,29.4384134 35.4307902,27.2967073 L35.4494283,27.3078681 C35.8339593,26.8197349 36.4303791,26.5063246 37.1,26.5063246 C37.4870093,26.5063246 37.8495673,26.6110129 38.1608998,26.7936154 L38.1638838,26.7905166 C39.4992303,27.5598307 41.0482213,27.999916 42.7,27.999916 C43.6698895,27.999916 44.60434,27.8481838 45.4809088,27.567162 L45.5809439,27.5336797 C49.1952927,26.3285275 51.8,22.9184155 51.8,18.8999433 C51.8,13.8741671 47.7257912,9.79997059 42.7,9.79997059 C41.0609938,9.79997059 39.5231919,10.2332762 38.1948992,10.9915826 C37.8725865,11.1795139 37.4993083,11.2909618 37.1,11.2909618 C35.940202,11.2909618 35,10.3507626 35,9.19096813 C35,8.35000793 35.494322,7.62450249 36.2082519,7.28916518 L36.155,7.319 L36.3315391,7.22095754 C37.223309,6.7336533 38.1770244,6.34551172 39.1778605,6.07135742 C38.1531392,4.92315206 36.661022,4.1999874 35,4.1999874 Z" id="形状结合备份-7"></path>
                </g>
            </g>
        </g>
    </g>
</svg>