<?xml version="1.0" encoding="UTF-8"?>
<svg width="120px" height="120px" viewBox="0 0 120 120" version="1.1" xmlns="http://www.w3.org/2000/svg" xmlns:xlink="http://www.w3.org/1999/xlink">
    <title>评价管理 icon@2x</title>
    <g id="页面-1" stroke="none" stroke-width="1" fill="none" fill-rule="evenodd">
        <g id="20210421设计稿" transform="translate(-165.000000, -841.000000)">
            <g id="评价管理-icon" transform="translate(165.000000, 841.000000)">
                <circle id="椭圆形备份-18" fill="#FF935C" cx="60" cy="60" r="60"></circle>
                <g transform="translate(32.000000, 32.000000)" fill="#FFFFFF">
                    <rect id="矩形" fill-opacity="0" x="0" y="0" width="56" height="56"></rect>
                    <path d="M38,37 C42.418278,37 46,40.581722 46,45 C46,49.418278 42.418278,53 38,53 C34.6582181,53 31.7950058,50.9509998 30.5981645,48.0408007 C29.8989303,48.6391799 28.9916022,49 28,49 C27.0083978,49 26.1010697,48.6391799 25.4021471,48.0416712 C24.2049942,50.9509998 21.3417819,53 18,53 C13.581722,53 10,49.418278 10,45 C10,40.581722 13.581722,37 18,37 C21.3417819,37 24.2049942,39.0490002 25.4018355,41.9591993 C26.1010697,41.3608201 27.0083978,41 28,41 C28.9916022,41 29.8989303,41.3608201 30.5978529,41.9583288 C31.7950058,39.0490002 34.6582181,37 38,37 Z" id="形状结合" fill-opacity="0.24"></path>
                    <path d="M49.9876774,16.011975 L40.3749462,14.561575 C39.4518353,14.4216795 38.6548771,13.8203619 38.2448387,12.954375 L33.9457849,3.90975278 C32.8191876,1.52492273 30.4756141,0.0122463321 27.9074194,0.0122463321 C25.3392246,0.0122463321 22.9956511,1.52492273 21.8690538,3.90975278 L17.57,12.954375 C17.1596382,13.8200273 16.3628185,14.421124 15.4398925,14.5612639 L5.82716129,16.011975 C3.28490604,16.4061594 1.17763121,18.2533469 0.386745935,20.780915 C-0.404139344,23.3084831 0.257659982,26.0808503 2.09533333,27.9384194 L9.05017204,34.9788639 C9.71739672,35.6554277 10.0211546,36.6270704 9.86307527,37.5791306 L8.22101075,47.520375 C7.77645746,50.1417695 8.81634924,52.7957992 10.9005806,54.3592194 C12.9679238,55.93324 15.7264295,56.1401806 17.9921075,54.8912194 L26.589914,50.1977972 C27.4135235,49.7473417 28.3995087,49.7473417 29.2231183,50.1977972 L37.821828,54.8921528 C40.0968913,56.1252536 42.8524696,55.9147876 44.9273603,54.3494453 C47.002251,52.7841031 48.0356264,50.1361008 47.5920215,47.5213083 L45.9502581,37.5800639 C45.7920725,36.6279959 46.095846,35.6563032 46.7631613,34.9797972 L53.718,27.9393528 C55.5561595,26.0820603 56.2184718,23.3096168 55.4278821,20.7817758 C54.6372924,18.2539349 52.5300625,16.4063818 49.9876774,16.011975 Z M50.994172,25.0341972 L44.0393333,32.0746417 C42.4508417,33.6847253 41.727243,35.9972823 42.1028172,38.263575 L43.7445806,48.2048194 C43.9407305,49.3071342 43.5020435,50.4271904 42.6191613,51.0782417 C41.753502,51.7489537 40.5887727,51.8362418 39.6385161,51.3016194 L31.0410108,46.6081972 C29.0804284,45.5375131 26.7344103,45.5375131 24.773828,46.6081972 L16.1763226,51.3025528 C15.2259993,51.8368566 14.0614472,51.7495819 13.1956774,51.079175 C12.3128643,50.4280529 11.874103,49.3081064 12.069957,48.2057528 L13.7120215,38.2648194 C14.0875402,35.9984371 13.363957,33.6858132 11.7755054,32.075575 L4.82066667,25.0351306 C4.04883486,24.2544776 3.77100447,23.0897132 4.10333835,22.0278334 C4.43567222,20.9659536 5.32092556,20.1898682 6.38896774,20.0240639 L16.0013978,18.5736639 C18.1982518,18.2402936 20.0949375,16.8094672 21.0715054,14.7488639 L25.3702581,5.70548611 C25.8435532,4.70335432 26.8282855,4.06768493 27.9074194,4.06768493 C28.9865532,4.06768493 29.9712856,4.70335432 30.4445806,5.70548611 L34.7436344,14.7501083 C35.7203643,16.810221 37.6169082,18.2405598 39.8134409,18.5736639 L49.426172,20.0237528 C50.494292,20.1895669 51.3795907,20.965749 51.7118723,22.0277313 C52.0441538,23.0897137 51.7661738,24.2545412 50.994172,25.0351306 L50.994172,25.0341972 Z" id="形状" fill-rule="nonzero"></path>
                    <path d="M35.9515484,23.3588639 L26.7386452,34.6245083 L21.2184301,29.9341972 C20.8182478,29.5938312 20.3031758,29.4325384 19.7874677,29.4860969 C19.2717595,29.5396554 18.7980506,29.8036373 18.4714194,30.2194861 C17.7886586,31.0866023 17.9113051,32.3606194 18.746,33.0717528 L24.3785161,37.8572639 C25.9651994,39.1940826 28.2951075,38.9743954 29.6214409,37.3629083 L38.9279785,25.9830861 C39.6255027,25.1286602 39.5252052,23.8527395 38.7033763,23.1258417 C38.3093102,22.7778601 37.7971512,22.6067632 37.2805269,22.6505105 C36.7639026,22.6942577 36.2855327,22.9492317 35.9515484,23.3588639 L35.9515484,23.3588639 Z" id="路径" fill-rule="nonzero"></path>
                </g>
            </g>
        </g>
    </g>
</svg>