<?xml version="1.0" encoding="UTF-8"?>
<svg width="32px" height="32px" viewBox="0 0 32 32" version="1.1" xmlns="http://www.w3.org/2000/svg" xmlns:xlink="http://www.w3.org/1999/xlink">
    <title>Press@2x</title>
    <g id="页面-1" stroke="none" stroke-width="1" fill="none" fill-rule="evenodd">
        <g id="20210421设计稿" transform="translate(-4480.000000, -330.000000)" fill-rule="nonzero">
            <g id="Press" transform="translate(4480.000000, 330.000000)">
                <rect id="矩形" fill="#000000" opacity="0" x="0" y="0" width="32" height="32"></rect>
                <path d="M17.112,25.08864 C17.76512,25.74176 17.76512,26.80128 17.112,27.4544 C16.45888,28.10784 15.39968,28.10784 14.74624,27.4544 L4.47424,17.18272 C4.14784,16.856 3.98464,16.42816 3.98464,16 C3.98464,15.57184 4.14816,15.14368 4.47424,14.81728 L14.74624,4.5456 C15.39968,3.89216 16.45888,3.89216 17.112,4.5456 C17.76512,5.19872 17.76512,6.25792 17.112,6.91136 L8.02336,16 L17.112,25.08864 Z M18.43648,16 L27.52512,6.91136 C28.17824,6.25792 28.17824,5.19872 27.52512,4.5456 C26.872,3.89216 25.8128,3.89216 25.15936,4.5456 L14.88736,14.81728 C14.56096,15.144 14.39776,15.57184 14.39776,16 C14.39776,16.42816 14.56128,16.85632 14.88736,17.18272 L25.15936,27.4544 C25.8128,28.10784 26.872,28.10784 27.52512,27.4544 C28.17824,26.80128 28.17824,25.74176 27.52512,25.08864 L18.43648,16 Z" id="形状" fill="#288CFF"></path>
            </g>
        </g>
    </g>
</svg>