<?xml version="1.0" encoding="UTF-8"?>
<svg width="120px" height="120px" viewBox="0 0 120 120" version="1.1" xmlns="http://www.w3.org/2000/svg" xmlns:xlink="http://www.w3.org/1999/xlink">
    <title>点餐统计 icon@2x</title>
    <g id="页面-1" stroke="none" stroke-width="1" fill="none" fill-rule="evenodd">
        <g id="20210421设计稿" transform="translate(-665.000000, -591.000000)">
            <g id="点餐统计-icon" transform="translate(665.000000, 591.000000)">
                <circle id="椭圆形备份-17" fill="#FBB300" cx="60" cy="60" r="60"></circle>
                <g id="点餐统计-icon备份" transform="translate(32.000000, 32.000000)" fill="#FFFFFF">
                    <rect id="矩形备份-2" fill-opacity="0" x="0" y="0" width="56" height="56"></rect>
                    <path d="M3.36817086,24.9999906 C18.6624579,25.1970981 31,37.6576329 31,53 L30.9975315,52.6309952 C29.6349467,52.8734763 28.2322477,53 26.8,53 C13.655623,53 3,42.3434711 3,29.1979765 C3,27.883427 3.10655623,26.5937672 3.31150182,25.3371646 Z" id="形状结合" fill-opacity="0.24"></path>
                    <path d="M27,12 C36.3888407,12 44,19.6111593 44,29 L44,29 L44,29 L27,29 L27,12 Z" id="矩形" fill-opacity="0.24"></path>
                    <path d="M17.5,5.72318187 C18.659798,5.72318187 19.6,6.6633839 19.6,7.82318187 C19.6,8.69521042 19.0684821,9.44309632 18.3117435,9.76054237 L18.3125529,9.76342792 C10.0698162,12.8400524 4.2,20.7845417 4.2,30.1 C4.2,42.0845791 13.9154209,51.8 25.9,51.8 C35.1604807,51.8 43.0661268,45.9992639 46.1815916,37.8331385 C46.4594614,36.9999165 47.2457831,36.4 48.1722228,36.4 C49.3320207,36.4 50.2722228,37.340202 50.2722228,38.5 C50.2722228,38.7983538 50.2100042,39.0821757 50.0978344,39.3391985 L50.1027469,39.3411748 C46.3813089,49.0818915 36.9485599,56 25.9,56 C11.595825,56 0,44.404175 0,30.1 C0,19.0391497 6.93350845,9.59770709 16.6913423,5.88485516 C16.9401485,5.78060751 17.213368,5.72318187 17.5,5.72318187 Z M28,0 C43.463973,0 56,12.536027 56,28 L56,29.3 C56,30.1284271 55.3284271,30.8 54.5,30.8 L26.7,30.8 C25.8715729,30.8 25.2,30.1284271 25.2,29.3 L25.2,1.5 C25.2,0.671572875 25.8715729,3.74224199e-16 26.7,0 L28,0 L28,0 Z M29.3997188,4.2404767 L29.399,26.599 L51.7594652,26.5992795 C51.0613229,14.5700266 41.4291048,4.93812297 29.3997188,4.2404767 Z" id="形状结合"></path>
                </g>
            </g>
        </g>
    </g>
</svg>