<?xml version="1.0" encoding="UTF-8"?>
<svg width="120px" height="120px" viewBox="0 0 120 120" version="1.1" xmlns="http://www.w3.org/2000/svg" xmlns:xlink="http://www.w3.org/1999/xlink">
    <title>食谱录入 icon@2x</title>
    <g id="页面-1" stroke="none" stroke-width="1" fill="none" fill-rule="evenodd">
        <g id="20210421设计稿" transform="translate(-415.000000, -341.000000)">
            <g id="食谱录入-icon" transform="translate(415.000000, 341.000000)">
                <circle id="椭圆形备份-13" fill="#3DC9FF" cx="60" cy="60" r="60"></circle>
                <g transform="translate(32.000000, 32.000000)" fill="#FFFFFF">
                    <rect id="矩形" fill-opacity="0" x="0" y="0" width="56" height="56"></rect>
                    <path d="M28,45 C36.2842712,45 43,48 43,45 C43,36.7157288 36.2842712,30 28,30 C19.7157288,30 13,36.7157288 13,45 C13,48 19.7157288,45 28,45 Z" id="椭圆形" fill-opacity="0.24"></path>
                    <path d="M54,52 C55.1045695,52 56,52.8954305 56,54 C56,55.1045695 55.1045695,56 54,56 L2,56 C0.8954305,56 1.3527075e-16,55.1045695 0,54 C-1.3527075e-16,52.8954305 0.8954305,52 2,52 L54,52 Z M28,0 C31.3137085,0 34,2.6862915 34,6 C34,8.61218135 32.3307123,10.8344797 30.0006859,11.6583461 L30.000386,14.0703553 C44.5307543,15.0960356 56,27.2086249 56,42 L56,44 C56,46.209139 54.209139,48 52,48 L4,48 C1.790861,48 2.705415e-16,46.209139 0,44 L0,42 C0,27.208285 11.4697728,15.095479 26.0006156,14.0702847 L26.0003218,11.6587023 C23.669769,10.8351204 22,8.61255791 22,6 C22,2.6862915 24.6862915,0 28,0 Z M28,18 C14.745166,18 4,28.745166 4,42 L4,43 C4,43.5128358 4.38604019,43.9355072 4.88337887,43.9932723 L5,44 L51,44 C51.5128358,44 51.9355072,43.6139598 51.9932723,43.1166211 L52,43 L52,42 C52,28.745166 41.254834,18 28,18 Z M36.2054066,27.0424019 C40.4266474,27.9670389 43.7973747,31.2737836 44.9376859,35.6089265 C45.1977445,36.6229094 44.620078,37.6646714 43.6471892,37.936204 C43.4921081,37.9785656 43.3324501,38 43.1721297,38 C42.3484344,37.9993871 41.6275933,37.4229211 41.4139198,36.5939365 C40.6374214,33.6435973 38.3435624,31.3930394 35.4707785,30.7629837 C34.8281845,30.631226 34.302828,30.1503208 34.0946058,29.5032513 C33.8863835,28.8561817 34.0273116,28.1424406 34.4637671,27.6336046 C34.9002227,27.1247686 35.5650969,26.8990758 36.2054066,27.0424019 Z M28,4 C26.8954305,4 26,4.8954305 26,6 C26,7.1045695 26.8954305,8 28,8 C29.1045695,8 30,7.1045695 30,6 C30,4.8954305 29.1045695,4 28,4 Z" id="形状结合"></path>
                </g>
            </g>
        </g>
    </g>
</svg>