<?xml version="1.0" encoding="UTF-8"?>
<svg width="200px" height="200px" viewBox="0 0 200 200" version="1.1" xmlns="http://www.w3.org/2000/svg" xmlns:xlink="http://www.w3.org/1999/xlink">
    <title>编组 2@2x</title>
    <g id="页面-1" stroke="none" stroke-width="1" fill="none" fill-rule="evenodd">
        <g id="20210421设计稿" transform="translate(-1245.000000, -749.000000)">
            <g id="编组-2" transform="translate(1245.000000, 749.000000)">
                <circle id="椭圆形-copy" fill="#F7F8FC" cx="100" cy="100" r="100"></circle>
                <path d="M87.3319467,94.6204367 C93.4509523,96.0376649 106.126504,98.245534 114.87011,95.1329546 C115.999329,96.3427941 117.083539,99.4982993 118.343358,102.605797 C119.528372,105.52878 120.760659,108.545556 122.016341,110.620503 C122.325854,111.131957 122.642783,111.582933 122.963048,111.973996 C122.470147,112.349815 121.989755,112.830107 121.525548,113.424278 C120.42927,114.827483 119.400646,116.922111 118.479484,119.731666 C116.751084,125.003305 115.342737,132.908618 114.275994,143.452941 C114.159745,144.602021 113.617932,145.613785 112.816444,146.33828 C112.014956,147.062775 110.953793,147.5 109.798847,147.5 L109.798847,147.5 L90.5585503,147.5 C89.3969817,147.499998 88.3308733,147.057895 87.5281495,146.326657 C86.7254262,145.595421 86.1860872,144.575051 86.0780566,143.418518 C85.0836194,132.772463 83.6793578,124.791315 81.889885,119.468924 C80.9346327,116.627737 79.8529116,114.510643 78.6868623,113.091798 C78.2157251,112.518519 77.727704,112.050221 77.225784,111.679622 C78.8383266,109.982054 80.4803672,107.298175 82.0121529,104.251889 L82.0121529,104.251889 L82.4054344,103.464595 C82.5362028,103.201327 82.6665285,102.937692 82.7966976,102.673817 L82.7966976,102.673817 L83.1830567,101.889649 C84.6962777,98.8173728 86.0465638,95.8121846 87.3319467,94.6204367 Z" id="路径" stroke="#C6CAD3" stroke-width="3" fill="#EAECF2" fill-rule="nonzero"></path>
                <path d="M100.001543,55.5 C105.995353,55.5 111.437715,57.8847946 115.411794,61.7476942 C119.388488,65.613136 121.895348,70.9594066 122.007518,76.8765396 C122.017227,77.3886547 122.008848,77.8971767 121.98379,78.4009684 C122.486728,78.3659288 122.994746,78.3481093 123.507249,78.3481093 C129.330306,78.3481093 134.574403,80.648523 138.365874,84.3699072 C142.161376,88.0952477 144.5,93.2444269 144.5,98.9250733 C144.5,104.596227 142.169023,109.737214 138.408899,113.461201 C134.64315,117.19076 129.443865,119.5 123.710868,119.5 C118.253812,119.5 113.281244,117.40668 109.56826,113.987523 C105.832521,110.547412 103.37091,105.764755 102.979429,100.421927 C102.941151,99.8995141 102.923234,99.3795148 102.924952,98.8636362 C102.411804,98.9413629 101.895602,98.9986368 101.377595,99.0352803 C100.459682,99.1002129 99.5382616,99.1002129 98.620348,99.0352803 C98.1021168,98.9986209 97.5856926,98.9413134 97.0723811,98.8644423 C97.0743461,99.3807667 97.0565909,99.9003388 97.0184846,100.422329 C96.6285192,105.764167 94.1666085,110.545956 90.4311358,113.985821 C86.7171061,117.405941 81.7431218,119.5 76.2870748,119.5 C70.5543424,119.5 65.3557598,117.190706 61.5905654,113.46118 C57.8306565,109.736889 55.5,104.59545 55.5,98.9240546 C55.5,93.2525653 57.8307266,88.1108131 61.5907296,84.3862574 C65.355905,80.6565781 70.5544178,78.3470907 76.2870748,78.3470907 C76.7905717,78.3470907 77.2899482,78.3649062 77.7840103,78.3991201 C77.7678885,77.9026929 77.7684298,77.4027552 77.7861448,76.8999014 C77.9952535,70.9641973 80.5627437,65.6021966 84.5819256,61.7300198 C88.5800793,57.878102 94.016013,55.5 100.001543,55.5 L100.001543,55.5 Z" id="路径" stroke="#C6CAD3" stroke-width="3" fill="#FFFFFF" fill-rule="nonzero"></path>
                <path d="M100.5,100.029816 C95.4465746,100.04451 90.5269192,99.0373392 86.490359,95.9382536 C85.57011,95.215218 85.5969475,94.1152435 85.8864255,93.5200497 C86.1759036,92.9248559 87.2820385,92.5403478 88.407305,93.2235763 C95.3722819,97.4525042 103.207752,98.9585445 112.523429,93.5200497 C113.128676,93.0332543 114.552555,92.6871196 115.058383,93.5200497 C115.564212,94.3529798 115.147827,95.4700829 114.520612,95.9270708 C110.482787,99.0331338 105.558556,100.044478 100.5,100.029816 Z" id="路径" fill="#C6CAD3" fill-rule="nonzero"></path>
                <path d="M145.363636,48.5 C144.490909,47.6428571 142.963636,47 141,47 C141,47 143.4,47 145.145455,45.5 C146.236364,44.6428571 146.890909,43.1428572 146.890909,41 C146.890909,41 146.890909,43.7857143 148.854545,45.5 C149.727273,46.3571429 151.254545,47 153,47 C153,47 150.818182,47 149.072727,48.5 C147.981818,49.3571429 147.109091,50.8571428 147.109091,53 C146.890909,52.7857143 147.109091,50.2142857 145.363636,48.5" id="Path-Copy" fill="#C6CAD3"></path>
                <path d="M46.5,136 C48.9852814,136 51,138.014719 51,140.5 C51,142.985281 48.9852814,145 46.5,145 C44.0147186,145 42,142.985281 42,140.5 C42,138.014719 44.0147186,136 46.5,136 Z M46.5,138 C45.1192881,138 44,139.119288 44,140.5 C44,141.880712 45.1192881,143 46.5,143 C47.8807119,143 49,141.880712 49,140.5 C49,139.119288 47.8807119,138 46.5,138 Z" id="Combined-Shape" fill="#C6CAD3"></path>
                <ellipse id="Oval" fill="#E7E9F3" cx="100" cy="173" rx="36" ry="3"></ellipse>
                <path d="M42,64 C42.5522847,64 43,64.4477153 43,65 L43,67 L45,67 C45.5522847,67 46,67.4477153 46,68 C46,68.5522847 45.5522847,69 45,69 L43,69 L43,71 C43,71.5522847 42.5522847,72 42,72 C41.4477153,72 41,71.5522847 41,71 L41,69 L39,69 C38.4477153,69 38,68.5522847 38,68 C38,67.4477153 38.4477153,67 39,67 L41,67 L41,65 C41,64.4477153 41.4477153,64 42,64 Z" id="Combined-Shape" fill="#EAECF2"></path>
            </g>
        </g>
    </g>
</svg>